<?xml version="1.0" encoding="UTF-8" standalone="no"?>
<!-- Created with Inkscape (http://www.inkscape.org/) -->

<svg
   width="115.26919mm"
   height="125.69716mm"
   viewBox="0 0 115.26919 125.69716"
   version="1.1"
   id="svg1"
   xml:space="preserve"
   xmlns="http://www.w3.org/2000/svg"
   xmlns:svg="http://www.w3.org/2000/svg"><defs
     id="defs1" /><g
     id="layer1"
     transform="translate(-14.901004,-77.257932)"><path
       style="fill:#000000;stroke-width:10.4241"
       d="m 14.901004,202.53798 c 0,-1.39422 6.617722,-10.61951 10.061965,-14.02683 1.717374,-1.69901 6.345498,-6.56371 10.284706,-10.81057 5.945714,-6.41007 6.887204,-7.80679 5.543107,-8.22365 -8.878314,-2.75288 -11.328927,-5.85008 -8.680768,-10.97099 2.933485,-5.67278 14.199367,-20.06819 22.482227,-28.72755 4.665097,-4.87721 10.783392,-11.92544 13.59622,-15.66277 9.044504,-12.01737 19.789453,-20.057032 25.043563,-18.738393 1.311147,0.329401 3.864249,2.154556 5.673572,4.056525 l 3.289674,3.458178 7.76257,-7.724436 c 4.26942,-4.24842 9.75776,-10.005 12.19633,-12.792294 7.00788,-8.010158 10.30265,-6.356584 6.26217,3.142848 -2.34635,5.516515 -10.18454,15.340472 -16.72858,20.966632 l -3.38492,2.9102 3.31042,2.77935 c 1.98614,1.66744 3.05461,3.19321 2.67092,3.81396 -1.02343,1.65596 -5.3865,1.19699 -7.97473,-0.83914 l -2.38201,-1.87371 -3.25308,2.78602 c -8.034996,6.88125 -16.804566,11.15104 -18.801471,9.1541 -1.585665,-1.5856 1.346058,-5.80797 8.677088,-12.49688 l 6.86254,-6.26152 -2.828442,-2.82846 c -2.685454,-2.68545 -2.950382,-2.76414 -5.240694,-1.55705 -3.678867,1.93889 -12.331198,10.23852 -16.908223,16.2189 -2.252669,2.94333 -8.328767,9.93578 -13.502445,15.53872 -10.298278,11.1526 -22.432775,27.23075 -21.336185,28.27035 0.380895,0.36068 2.810585,1.27684 5.399254,2.03478 l 4.706679,1.37815 4.5292,-3.05017 c 5.058543,-3.40658 6.812672,-2.95876 4.666526,1.19147 -0.769399,1.48793 -1.39896,3.0433 -1.39896,3.45651 0,0.41279 1.953958,1.57674 4.34213,2.58568 4.431005,1.87206 6.248709,1.48897 6.248709,-1.31696 0,-0.68487 6.85095,-8.30215 15.224333,-16.92753 8.373382,-8.62527 19.107171,-19.77057 23.852871,-24.76723 9.40475,-9.90224 11.06048,-10.43699 9.9787,-3.22313 -0.84382,5.62701 -4.54948,10.89241 -13.90737,19.7611 -4.514696,4.27875 -13.349155,13.06883 -19.63213,19.53362 -14.610855,15.03368 -16.460927,16.03533 -23.211722,12.56767 -7.193848,-3.69522 -6.632732,-3.96531 -19.079503,9.18411 -6.228893,6.5805 -12.979532,13.08897 -15.001402,14.46327 -4.345247,2.95345 -9.412839,4.87377 -9.412839,3.56691 z"
       id="path1" /></g></svg>
