<?xml version="1.0" encoding="UTF-8" standalone="no"?>
<!-- Created with Inkscape (http://www.inkscape.org/) -->

<svg
   width="106.48776mm"
   height="78.602013mm"
   viewBox="0 0 106.48776 78.602013"
   version="1.1"
   id="svg1"
   xml:space="preserve"
   xmlns="http://www.w3.org/2000/svg"
   xmlns:svg="http://www.w3.org/2000/svg"><defs
     id="defs1" /><g
     id="layer1"
     transform="translate(-46.770341,-95.363225)"><path
       style="fill:#000000;stroke-width:4.22058"
       d="m 92.8675,172.94911 c -3.58272,-1.18202 -4.4265,-1.6007 -9.60004,-4.76344 -4.53292,-2.7711 -10.29951,-5.45345 -15.30682,-7.11995 -2.9438,-0.97976 -4.099774,-1.17758 -7.253945,-1.24127 -2.063653,-0.0422 -3.711895,-0.17051 -3.662759,-0.28658 0.04913,-0.11564 0.08935,-0.35199 0.08935,-0.52457 0,-0.17262 0.442211,-0.48094 0.98269,-0.685 2.778556,-1.04903 6.132715,-0.77385 12.361224,1.01412 4.94995,1.42094 8.52268,2.95744 13.33245,5.73374 5.48025,3.16333 7.6341,4.09861 12.18464,5.29105 l 4.0201,1.05345 4.02011,-1.05345 c 4.5505,-1.19244 6.70439,-2.12772 12.1846,-5.29105 4.80978,-2.7763 8.3825,-4.3128 13.33248,-5.73374 6.22848,-1.78797 9.58266,-2.06315 12.3612,-1.01412 0.54048,0.20385 0.98271,0.51233 0.98271,0.685 0,0.17262 1.3e-4,0.40897 3e-4,0.52546 1.7e-4,0.11607 -1.64805,0.24522 -3.66275,0.28616 -3.05354,0.0625 -4.24582,0.26885 -7.16494,1.24042 -5.007,1.66642 -10.77367,4.34872 -15.30708,7.11995 -5.3974,3.29936 -5.76328,3.48042 -9.51475,4.70899 -2.90772,0.95225 -3.79738,1.08224 -7.32549,1.07025 -3.41626,-0.0127 -4.46934,-0.16333 -7.05326,-1.0158 z m 7.01588,-7.20015 c -0.12958,-0.87851 -0.20935,-8.28694 -0.17685,-16.46317 0.0338,-8.17619 -0.0591,-15.0565 -0.20301,-15.28948 -0.14392,-0.23297 -0.14307,-1.10119 0.002,-1.92926 l 0.26378,-1.50561 0.48364,2.68007 c 1.29652,7.18477 1.53524,15.25313 0.78634,26.57623 -0.45038,6.80957 -0.7779,8.49054 -1.15556,5.93122 z m -43.370473,-14.3723 c -0.224493,-1.2284 -0.963567,-4.96707 -1.642371,-8.30821 -1.291139,-6.35518 -1.888355,-9.89329 -4.011092,-23.7633 -1.617706,-10.57011 -2.18789,-13.11921 -3.244288,-14.50424 -0.532131,-0.69766 -0.844817,-1.59111 -0.844817,-2.41392 0,-1.6112 0.627491,-1.73677 0.781381,-0.15616 0.0823,0.8453 0.437375,1.36848 1.340225,1.97485 1.78173,1.19658 3.913452,1.71702 12.708108,3.10243 11.343587,1.7869 20.317067,3.742 24.656627,5.37199 1.15961,0.43557 -1.25883,-1.18644 -3.39474,-2.27683 -2.26674,-1.15716 -6.3625,-2.53446 -10.72028,-3.60493 -7.505714,-1.84376 -11.193729,-3.57939 -14.494565,-6.821257 l -1.808902,-1.776611 0.276954,2.592068 c 0.152321,1.42567 0.179164,2.98176 0.05964,3.45801 l -0.217318,0.86589 -0.536343,-1.02366 c -0.746836,-1.42537 -0.774637,-4.962768 -0.04474,-5.694701 0.516671,-0.518118 0.718423,-0.439573 2.322725,0.903795 3.252906,2.723926 5.272028,3.436106 14.194279,5.006576 8.65633,1.52363 11.4333,2.58591 17.67617,6.76171 5.8315,3.90062 8.74171,7.21099 9.14942,10.40741 0.0857,0.67238 0.26674,1.6556 0.4018,2.18491 0.42514,1.66286 -0.1722,1.83388 -1.24275,0.35579 -1.54764,-2.13646 -3.76729,-3.764 -7.8694,-5.77012 -5.64663,-2.76153 -13.2383,-4.90562 -28.483251,-8.04443 -5.771496,-1.18831 -10.790466,-2.67209 -11.807111,-3.49067 -0.540931,-0.43553 -0.55886,-0.11987 -0.08614,1.51696 0.820839,2.84205 2.221232,10.17016 3.399723,17.79042 0.690217,4.46297 1.820446,11.2159 2.511621,15.0064 1.157364,6.3472 1.918841,12.58328 1.53652,12.58328 -0.08749,0 -0.342754,-1.005 -0.567238,-2.23336 z m 86.543813,-0.52297 c 0.0945,-1.61429 0.73721,-6.0364 1.42841,-9.82694 0.69117,-3.79051 1.8214,-10.54344 2.51163,-15.0064 1.17847,-7.62026 2.57886,-14.94837 3.39972,-17.79043 0.4727,-1.63678 0.45481,-1.95248 -0.0861,-1.51696 -1.01665,0.81858 -6.0356,2.30237 -11.80712,3.49067 -15.24496,3.13881 -22.83664,5.28291 -28.48327,8.04443 -4.10211,2.00613 -6.32176,3.63367 -7.8694,5.77013 -1.07068,1.478 -1.66785,1.30698 -1.24275,-0.3558 0.13548,-0.5293 0.31612,-1.51253 0.4018,-2.18491 0.4077,-3.19641 3.31792,-6.50678 9.14941,-10.4074 6.24287,-4.1758 9.01985,-5.23808 17.67619,-6.76171 8.92226,-1.57048 10.94139,-2.28266 14.19428,-5.00658 1.60432,-1.343369 1.80607,-1.421914 2.32275,-0.903795 0.72986,0.731933 0.70205,4.269325 -0.0447,5.694705 l -0.53631,1.02366 -0.21736,-0.8659 c -0.11944,-0.47625 -0.0928,-2.03233 0.0595,-3.458 l 0.27687,-2.592073 -1.80894,1.776611 c -3.30083,3.241872 -6.98882,4.977502 -14.49453,6.821262 -4.3578,1.07047 -8.45358,2.44777 -10.72029,3.60492 -2.13595,1.09039 -4.55438,2.7124 -3.39478,2.27684 4.33956,-1.62999 13.31308,-3.58509 24.65665,-5.372 8.79467,-1.3854 10.92641,-1.90584 12.70812,-3.10242 0.90283,-0.60637 1.25791,-1.12955 1.34021,-1.97485 0.15405,-1.58044 0.78139,-1.45488 0.78139,0.15616 0,0.8228 -0.31274,1.71626 -0.84483,2.41392 -1.05671,1.38545 -1.62729,3.93712 -3.24326,14.50424 -2.46123,16.09467 -3.58462,22.40533 -5.56619,31.26749 l -0.7191,3.21608 z m -44.74526,-33.9311 c -0.57598,-1.89694 -3.81025,-6.03872 -5.84449,-7.48444 -2.26569,-1.61015 -3.4521,-2.16039 -8.11259,-3.76244 -5.46943,-1.88014 -9.34831,-3.96 -11.90164,-6.381728 l -2.07219,-1.965398 -0.3531,1.608041 c -0.19418,0.884423 -0.46393,2.170855 -0.59939,2.858765 -0.21023,1.06752 -0.28755,1.14602 -0.52794,0.53602 -0.66041,-1.67583 0.0922,-6.968181 0.9909,-6.968181 0.24509,0 0.69075,0.474098 0.9904,1.053541 1.13533,2.195504 5.60348,4.55325 13.59081,7.17161 2.55375,0.83715 5.58818,1.99482 6.74314,2.57257 4.51476,2.25852 7.88881,6.88301 7.65947,10.49819 l -0.111,1.75268 z m 2.79166,-0.32963 c -0.0338,-3.74175 3.26779,-8.20953 7.71029,-10.43188 1.15496,-0.57776 4.18934,-1.73542 6.74313,-2.57257 7.98732,-2.61837 12.45546,-4.97611 13.59079,-7.171613 0.29967,-0.579444 0.74536,-1.053542 0.99041,-1.053542 0.89873,0 1.6513,5.292355 0.9909,6.968175 -0.24057,0.61001 -0.31781,0.5315 -0.52795,-0.53601 -0.13548,-0.68791 -0.40517,-1.974346 -0.59936,-2.858768 l -0.35327,-1.608041 -2.07217,1.965397 c -2.55333,2.421732 -6.43223,4.501592 -11.90168,6.381732 -4.75098,1.63315 -5.89227,2.1676 -8.17708,3.82925 -2.05441,1.49408 -4.87118,5.0549 -5.72412,7.23614 l -0.6533,1.67072 z"
       id="path1" /></g></svg>
