<?xml version="1.0" encoding="UTF-8" standalone="no"?>
<!-- Created with Inkscape (http://www.inkscape.org/) -->

<svg
   width="103.16101mm"
   height="100.01106mm"
   viewBox="0 0 103.16101 100.01106"
   version="1.1"
   id="svg1"
   xml:space="preserve"
   xmlns="http://www.w3.org/2000/svg"
   xmlns:svg="http://www.w3.org/2000/svg"><defs
     id="defs1" /><g
     id="layer1"
     transform="translate(-6.2179924,-75.434454)"><path
       style="fill:#000000;stroke-width:2.9428"
       d="m 11.556649,174.09103 c 8.913764,-3.71679 18.849307,-6.52534 26.784399,-7.57136 8.472147,-1.11679 18.771461,-1.42399 29.235053,-0.87195 10.045107,0.52994 12.671763,0.88846 13.645889,1.86259 l 0.567402,0.5674 3.968808,-5.26847 c 8.240113,-10.93845 9.725757,-14.11103 9.449752,-20.17994 -0.142138,-3.1226 -0.393634,-3.97699 -2.877766,-9.77213 -1.887104,-4.40226 -3.199884,-6.67981 -6.740077,-11.69334 -4.192786,-5.9377 -5.155024,-8.30038 -5.428851,-13.32992 -0.263676,-4.84009 0.642707,-8.541162 2.885888,-11.786042 1.585701,-2.293796 5.435032,-6.068381 7.265456,-7.124376 1.76082,-1.015826 4.754656,-1.959965 6.878358,-2.16911 2.037003,-0.200699 1.900932,0.138312 -0.230127,0.573111 -2.038745,0.415877 -6.250337,2.519362 -7.791839,3.891679 -4.123361,3.670821 -4.154671,8.276365 -0.0718,10.569018 2.248623,1.26269 2.919199,1.3945 4.722371,0.92816 4.843736,-1.25267 9.441715,-4.574267 12.339815,-8.914399 1.83175,-2.743191 2.1363,-3.806014 2.01203,-7.021819 -0.16304,-4.218213 -1.17486,-6.269287 -3.7494,-7.599992 -0.89352,-0.461843 -0.93899,-0.518875 -0.30349,-0.380681 2.7238,0.592327 4.56293,3.399407 5.13142,7.832149 0.48103,3.751013 -0.33592,6.315223 -3.23997,10.169176 -2.5208,3.345346 -5.90976,5.809856 -10.538493,7.663766 -1.931507,0.7736 -2.543314,0.91103 -3.686243,0.82795 -1.737723,-0.12624 -3.44805,-0.97774 -4.966568,-2.47251 -1.548643,-1.5244 -2.31869,-3.167955 -2.35518,-5.026982 l -0.02943,-1.444974 -0.558339,0.697503 c -2.289941,2.860726 -2.992505,10.279643 -1.418136,14.975563 0.832313,2.48252 1.418048,3.47427 5.326382,9.01816 3.481898,4.93897 4.823138,7.33019 7.202743,12.84118 1.831747,4.24214 2.251099,5.75768 2.446238,8.84059 0.25161,3.97546 -0.685525,7.49266 -3.040709,11.41165 -1.617898,2.69217 -4.762222,7.02038 -6.898783,9.49628 -2.114401,2.4502 -5.696471,5.44718 -6.496618,5.43547 -0.302108,-0.003 -2.791719,-0.10094 -5.532438,-0.21482 -15.563411,-0.64551 -19.860935,-0.7257 -25.414049,-0.47424 -8.731361,0.3954 -16.18107,1.43071 -22.424147,3.11637 -7.587152,2.04858 -9.925293,2.60038 -13.57907,3.2046 -6.5468808,1.08265 -6.542555,1.08371 -2.491571,-0.60543 z m -4.6159795,-3.57138 c -1.0400126,-2.48909 -0.9585526,-5.83481 0.2511681,-10.31655 2.1859048,-8.09821 6.3779494,-13.06148 17.0718174,-20.21255 5.001203,-3.34432 6.862864,-5.30043 8.906958,-9.35876 2.456727,-4.87758 2.489972,-7.98841 0.185043,-17.31641 -1.341862,-5.4305 -1.477436,-6.61351 -1.423086,-12.41751 0.05545,-5.92077 0.36283,-9.918302 0.930147,-12.096357 1.542225,-5.921006 5.55766,-11.172347 9.830867,-12.85669 l 1.29481,-0.510369 1.277473,1.148545 c 0.702608,0.631731 1.898607,1.461779 2.657774,1.844608 4.505614,2.27199 12.600209,3.459793 21.437445,3.145708 5.95064,-0.211588 9.885637,-0.662866 19.060531,-2.186355 5.330885,-0.885224 8.475178,-1.280502 10.962932,-1.378203 1.918501,-0.07534 3.432131,-0.07622 3.363621,-0.0018 -0.48715,0.528527 -16.946181,3.350056 -24.292826,4.164447 -14.619236,1.620554 -28.019301,-0.289265 -33.305877,-4.747051 -1.339931,-1.12983 -1.60202,-1.171794 -2.967657,-0.475115 -3.105003,1.584051 -6.172974,6.18574 -7.444603,11.166196 -0.719812,2.819234 -1.088486,8.409704 -0.922453,13.987906 0.150142,5.04467 0.390304,6.63705 1.89384,12.55758 1.830723,7.20893 1.896724,10.93996 0.265588,15.01356 -2.161341,5.39768 -4.954813,8.578 -11.336794,12.90681 -6.287876,4.26494 -10.496897,8.36941 -12.65782,12.34337 -1.174726,2.16034 -3.8629548,9.95724 -4.3038773,12.48292 -0.1938719,1.1105 -0.2825974,2.4561 -0.1971972,2.99027 0.1915171,1.1977 -0.064124,1.25561 -0.53785,0.12184 z M 89.922147,98.458641 c -1.747962,-0.657393 -2.972701,-1.3197 -2.785889,-1.506509 0.05534,-0.05533 1.151959,-0.124187 2.437051,-0.153026 1.90173,-0.04267 2.545169,-0.16156 3.457731,-0.63844 1.693377,-0.884813 3.230725,-2.239296 3.684919,-3.246588 0.223657,-0.495833 0.568461,-1.097753 0.766392,-1.337562 0.522411,-0.63285 1.824333,-0.559074 2.481669,0.140666 2.07156,2.205071 -2.271759,6.834157 -6.808381,7.25636 -1.229945,0.114476 -1.80311,0.02354 -3.233492,-0.514755 z"
       id="path1" /></g></svg>
