<?xml version="1.0" encoding="UTF-8" standalone="no"?>
<!-- Created with Inkscape (http://www.inkscape.org/) -->

<svg
   width="70.161415mm"
   height="119.22811mm"
   viewBox="0 0 70.161415 119.22811"
   version="1.1"
   id="svg1"
   xml:space="preserve"
   xmlns="http://www.w3.org/2000/svg"
   xmlns:svg="http://www.w3.org/2000/svg"><defs
     id="defs1" /><g
     id="layer1"
     transform="translate(-52.987848,-82.149526)"><path
       style="fill:#000000;stroke-width:4.75817"
       d="m 71.582518,200.55923 c -2.841133,-1.09262 -5.383012,-3.4511 -6.989007,-6.48471 -0.741446,-1.40057 -2.928812,-5.08448 -4.860818,-8.18648 -4.593965,-7.37601 -5.969165,-10.14179 -6.522745,-13.11849 -0.906111,-4.87241 1.006257,-10.71768 4.896776,-14.96734 2.624489,-2.86679 4.922383,-4.17029 11.299186,-6.40958 7.662468,-2.69079 9.286763,-4.69688 7.315998,-9.03571 -0.408203,-0.89867 -1.537235,-2.33626 -2.509014,-3.19463 -1.253386,-1.10713 -1.415635,-1.34884 -0.558295,-0.83177 3.15621,1.9035 4.692046,4.15506 4.734156,6.94026 0.04663,3.07334 -1.825404,4.72005 -7.755591,6.82273 -5.29874,1.87876 -7.201692,2.88326 -9.398603,4.96101 -4.858596,4.59505 -6.262769,11.47031 -3.473884,17.00925 0.828363,1.64523 4.671871,7.13677 7.852809,11.21999 0.776742,0.99707 2.253048,3.29936 3.280683,5.11622 2.201094,3.89151 4.621349,6.54466 8.066437,8.84266 2.197182,1.46561 2.392534,1.69672 1.611429,1.90613 -1.738877,0.4663 -4.948107,0.19556 -6.989517,-0.58954 z m 22.314396,0.56089 c -0.51933,-0.13561 -0.03949,-0.62931 1.812861,-1.86487 3.463626,-2.31042 5.880845,-4.95781 8.085305,-8.85527 1.02764,-1.81686 2.50394,-4.11915 3.28069,-5.11622 3.18093,-4.08322 7.02444,-9.57476 7.85281,-11.21999 2.78888,-5.53894 1.38471,-12.4142 -3.47389,-17.00925 -2.19691,-2.07775 -4.09986,-3.08225 -9.3986,-4.96101 -5.93019,-2.10268 -7.802052,-3.74939 -7.755593,-6.82273 0.01475,-0.97923 0.320224,-2.34763 0.678733,-3.0409 0.35848,-0.69326 0.601841,-1.25853 0.540761,-1.25615 -0.0611,0.002 -1.017491,0.28025 -2.125349,0.61727 -5.139451,1.56373 -13.516872,1.5445 -15.095588,-0.0333 -0.951652,-0.95197 0.09478,-1.37845 3.412703,-1.39091 1.551005,-0.005 3.454509,-0.11515 4.230009,-0.24314 l 1.410006,-0.2322 -0.136987,-2.86665 c -0.07532,-1.57667 0.07318,-3.96279 0.330074,-5.3025 0.834116,-4.35001 3.615739,-12.80156 5.76466,-17.51505 1.154673,-2.53267 2.160316,-4.75488 2.234758,-4.93821 0.200271,-0.49314 -1.895197,0.37875 -3.001156,1.24859 -0.526967,0.41443 -2.045093,1.07925 -3.37362,1.47722 -1.716213,0.51407 -2.489629,0.96415 -2.671558,1.55468 -0.140841,0.45726 -0.949986,2.00956 -1.798129,3.44977 -2.010292,3.41365 -2.962929,5.67934 -2.283206,5.4302 0.982828,-0.36019 1.549939,0.50918 1.694331,2.59734 0.103442,1.49578 0.410724,2.39707 1.048899,3.07635 1.030128,1.09652 1.042552,1.08786 -2.565964,1.7974 l -2.340746,0.46011 0.66079,1.00845 c 0.363428,0.5547 0.585278,1.084 0.492993,1.17631 -0.09231,0.0923 -1.051302,0.0476 -2.131153,-0.10135 -3.320105,-0.45488 -4.805248,-2.96519 -3.151409,-5.32639 0.602084,-0.85956 0.890543,-0.9246 3.457516,-0.77957 l 2.800622,0.15844 -0.234672,-1.17326 c -0.129042,-0.64531 -0.234625,-1.43321 -0.234625,-1.75096 0,-0.31785 -0.181286,-0.46583 -0.402874,-0.32879 -0.536274,0.33164 -0.531306,0.29929 0.439797,-2.84472 0.463445,-1.50048 0.746851,-3.2071 0.629781,-3.79245 -0.259891,-1.2994 0.30419,-3.94095 1.371085,-6.42104 l 0.796236,-1.85093 4.726566,-0.65967 c 4.488039,-0.62637 6.009125,-0.60938 4.933965,0.0552 -0.30614,0.18938 -0.09393,0.37304 0.579787,0.50161 0.905517,0.1732 1.174572,-0.0143 1.819099,-1.27952 0.964447,-1.89047 5.235828,-7.629052 6.464918,-8.685555 1.06931,-0.919182 0.9048,-0.567839 -1.2261,2.618565 -5.792821,8.66224 -9.693907,18.58753 -11.638036,29.61006 -0.477768,2.70877 -0.703443,8.52939 -0.344634,8.8882 0.19361,0.19366 3.272709,-0.21507 9.150032,-1.21414 0.829408,-0.14084 0.694521,0.0799 -0.85901,1.40804 -1.029125,0.87969 -2.130692,2.29448 -2.494621,3.20405 -1.71843,4.29477 -0.154164,6.1516 7.424139,8.81284 6.3768,2.23928 8.67469,3.54278 11.29918,6.40958 3.89052,4.24966 5.80289,10.09492 4.89678,14.96733 -0.55358,2.97671 -1.92878,5.74249 -6.52275,13.1185 -1.932,3.10199 -4.11937,6.7859 -4.86081,8.18647 -1.63407,3.08662 -4.16659,5.40561 -7.10337,6.50441 -2.030907,0.75988 -5.302869,1.00945 -7.09546,0.5412 z m -0.900516,-65.63575 c -0.670421,-0.49023 -0.563086,-0.67851 1.401384,-2.45797 1.170076,-1.05983 2.556077,-2.15945 3.079999,-2.44346 0.523921,-0.28406 0.952699,-0.55599 0.952837,-0.60429 1.33e-4,-0.0485 -0.913068,-0.0238 -2.029339,0.0528 -2.51105,0.17415 -3.849964,-0.13989 -4.171421,-0.97747 -0.380416,-0.99132 0.03854,-1.45643 4.790506,-5.31844 2.437289,-1.98087 5.626106,-4.66943 7.086256,-5.97459 1.46015,-1.30517 3.00108,-2.58897 3.42429,-2.8529 0.73389,-0.45774 0.72756,-0.48096 -0.13694,-0.50356 -1.44926,-0.0381 -1.04558,-0.82939 0.423,-0.82939 1.57259,0 2.29629,0.60757 2.29629,1.92791 0,0.664 -0.77172,1.6665 -2.49651,3.24302 -1.37308,1.25506 -3.77512,3.50253 -5.33787,4.99446 l -2.841349,2.71253 1.635149,0.005 c 0.89933,0.004 1.94747,0.23505 2.32921,0.51426 1.00249,0.73305 0.21098,2.74442 -1.458,3.70509 -0.71378,0.41111 -2.855608,1.7796 -4.759612,3.04161 -3.036485,2.01261 -3.551033,2.2293 -4.187861,1.76366 z m 5.589069,-23.69766 c -0.40097,-1.04489 1.195623,-2.41315 4.192143,-3.5926 3.09824,-1.21947 5.32135,-2.49166 5.32135,-3.04513 0,-0.20936 -0.40792,-0.45917 -0.90643,-0.55538 -0.70028,-0.13465 -0.62698,-0.18699 0.32227,-0.22934 1.49363,-0.0666 2.19557,0.56308 2.19557,1.96978 0,1.26806 -1.11503,2.36148 -3.82715,3.75296 -1.75971,0.90286 -1.87727,1.03585 -0.9302,1.05222 0.59625,0.01 1.2039,0.21269 1.35034,0.44965 0.17934,0.29025 -0.56894,0.41634 -2.29266,0.38636 -1.4074,-0.0238 -3.146,0.0738 -3.86356,0.2184 -1.006994,0.20317 -1.36329,0.11039 -1.561687,-0.40682 z m -8.10355,-6.9738 c -0.360764,-0.83092 -0.733428,-2.71506 -0.828192,-4.187 -0.149311,-2.31927 -0.0591,-2.789472 0.676449,-3.524989 0.954212,-0.95425 3.385349,-1.161849 4.041719,-0.344967 0.222587,0.276925 0.954893,1.162039 1.627312,1.966787 1.200751,1.437059 1.581181,2.230249 0.854138,1.780929 -0.20265,-0.12513 -0.445364,0 -0.539348,0.27836 -0.0944,0.27978 -0.472295,-0.0747 -0.844293,-0.791238 -0.904932,-1.743439 -2.019261,-2.326647 -2.852801,-1.493112 -0.869512,0.869507 -0.791863,2.93151 0.194371,5.16104 0.929317,2.10087 0.787562,2.66514 -0.669521,2.66514 -0.77492,0 -1.153546,-0.34449 -1.65982,-1.51071 z m 17.617043,-1.87049 c 0,-0.3088 -0.28407,-0.67018 -0.63127,-0.80341 -0.40925,-0.15702 -0.58636,-0.6267 -0.50357,-1.33529 0.13256,-1.134723 0.6628,-1.597882 6.36394,-5.558722 3.28245,-2.280446 5.51192,-4.554468 5.87205,-5.989293 0.26351,-1.049984 -0.55239,-2.983084 -1.6401,-3.885803 -0.81626,-0.67742 -3.97927,-0.670663 -6.08887,0.01427 -2.37901,0.770965 -7.64767,3.999809 -12.393816,7.595459 -5.32354,4.033021 -5.685508,3.529559 -1.292199,-1.797254 1.109438,-1.345181 7.291035,-5.674541 10.313835,-7.223418 4.75524,-2.436609 12.35399,-2.406585 13.96697,0.05519 0.36576,0.558276 0.80902,1.925868 0.98501,3.039135 0.34606,2.189042 -0.21055,4.198225 -1.84088,6.645016 -0.98446,1.477458 -5.37961,4.977422 -8.93115,7.11198 -1.35696,0.8156 -2.69348,1.75557 -2.97005,2.08879 -0.63031,0.7595 -1.2099,0.78091 -1.2099,0.0428 z"
       id="path1" /></g></svg>
