<?xml version="1.0" encoding="UTF-8" standalone="no"?>
<!-- Created with Inkscape (http://www.inkscape.org/) -->

<svg
   width="150.03543mm"
   height="192.52466mm"
   viewBox="0 0 150.03543 192.52466"
   version="1.1"
   id="svg1"
   xml:space="preserve"
   sodipodi:docname="vfo-stories.svg"
   inkscape:version="1.3.2 (1:1.3.2+202311252150+091e20ef0f)"
   xmlns:inkscape="http://www.inkscape.org/namespaces/inkscape"
   xmlns:sodipodi="http://sodipodi.sourceforge.net/DTD/sodipodi-0.dtd"
   xmlns="http://www.w3.org/2000/svg"
   xmlns:svg="http://www.w3.org/2000/svg"><sodipodi:namedview
     id="namedview1"
     pagecolor="#ffffff"
     bordercolor="#000000"
     borderopacity="0.25"
     inkscape:showpageshadow="2"
     inkscape:pageopacity="0.0"
     inkscape:pagecheckerboard="0"
     inkscape:deskcolor="#d1d1d1"
     inkscape:document-units="mm"
     inkscape:zoom="0.5607074"
     inkscape:cx="164.07845"
     inkscape:cy="354.90882"
     inkscape:window-width="1850"
     inkscape:window-height="1016"
     inkscape:window-x="0"
     inkscape:window-y="0"
     inkscape:window-maximized="1"
     inkscape:current-layer="g1" /><defs
     id="defs1" /><g
     id="layer1"
     transform="translate(-31.154929,-41.42211)"><g
       id="g1"
       transform="matrix(2.9601399,0,0,2.9601399,-218.67925,-296.83267)"
       style="fill:#212221;fill-opacity:1"><g
         id="g2"><path
           style="fill:#212221;fill-opacity:1;stroke-width:3.77723"
           d="m 114.2699,166.52085 c -3.37137,-0.66381 -3.37137,-0.90839 3e-4,-3.85927 l 2.92157,-2.55696 h 2.01149 2.01153 l -1.02178,0.79953 c -1.66493,1.30276 -5.98597,5.1612 -5.98597,5.34512 0,0.0933 0.1798,0.0302 0.39975,-0.14127 6.38208,-4.96623 8.17411,-6.34205 10.31372,-7.91859 1.40714,-1.03681 4.19953,-3.09933 6.20524,-4.58332 l 3.6468,-2.69823 -0.18924,1.83339 c -0.31124,3.01635 -2.05606,6.23081 -4.95074,9.1211 -1.36041,1.35833 -3.07935,2.77774 -3.81987,3.15426 -1.67517,0.85165 -1.95136,0.86188 -1.21204,0.0449 0.90102,-0.99556 0.14618,-0.75182 -0.94416,0.30483 -0.81097,0.78589 -1.36403,0.99103 -3.29325,1.2214 -1.27523,0.15222 -2.31858,0.20624 -2.31858,0.12012 0,-0.0861 0.25194,-0.44666 0.55964,-0.80081 0.37659,-0.43321 0.18357,-0.36299 -0.58982,0.21454 -0.63223,0.47223 -1.27984,0.84452 -1.43912,0.82729 -0.1594,-0.0189 -1.19678,-0.21001 -2.30551,-0.42826 z m -17.399888,-2.36118 c -0.460671,-0.1832 -0.28367,-0.52081 1.119344,-2.13622 l 1.666514,-1.91883 -2.106636,1.83226 c -1.83207,1.59342 -2.179273,1.77911 -2.664081,1.42462 -0.5029,-0.3679 -0.281026,-0.67356 2.266527,-3.12577 6.02959,-5.80353 7.78381,-7.42921 7.87768,-7.30044 0.0536,0.0736 0.36148,0.74098 0.68428,1.48331 0.78223,1.79899 1.63939,2.57109 2.35586,2.12205 0.79741,-0.49976 0.81694,-1.42016 0.0808,-3.80389 -0.36261,-1.17359 -0.65905,-2.17792 -0.65905,-2.23186 0,-0.15562 6.98629,-6.23065 7.16548,-6.23065 0.0888,0 -0.20775,0.97143 -0.65867,2.15869 -0.74325,1.95641 -0.80576,2.47427 -0.66706,5.52665 l 0.15298,3.36793 -1.20849,0.90903 c -0.66468,0.49999 -1.90512,1.63822 -2.75655,2.52946 -1.35432,1.41767 -1.40796,1.52097 -0.42871,0.82555 3.66988,-2.6061 4.35299,-3.08332 4.68584,-3.27327 0.31427,-0.17942 1.92352,1.958 1.64332,2.18248 -0.051,0.0408 -1.72215,1.20192 -3.71336,2.57989 l -3.62043,2.50543 -2.93559,-0.0801 c -1.75279,-0.0476 -3.87823,0.12049 -5.27509,0.41795 -1.286714,0.27385 -2.366057,0.48775 -2.398541,0.4754 -0.034,-0.0113 -0.305201,-0.12012 -0.606284,-0.23986 z m -4.640591,-3.33549 c -0.169976,-0.21983 -0.402615,-0.56439 -0.516801,-0.7656 -0.123138,-0.21719 1.905046,-2.17561 4.987152,-4.8159 2.857135,-2.44757 5.368008,-4.55398 5.579798,-4.68089 0.45538,-0.27309 2.01349,0.0642 2.01349,0.43559 0,0.14165 -2.33856,2.26226 -5.196824,4.71236 -2.858268,2.45014 -5.394375,4.69313 -5.635778,4.98447 -0.525073,0.63374 -0.817544,0.6646 -1.231037,0.12993 z m -1.704777,-2.50985 c -0.310866,-0.58102 -0.295757,-0.78317 0.0797,-1.06265 0.254963,-0.19 1.79086,-1.42224 3.413143,-2.73868 2.346717,-1.90437 3.134043,-2.37426 3.851868,-2.29898 1.06786,0.11219 1.946633,-0.64492 1.946633,-1.67682 0,-0.66491 0.868872,-1.78569 1.384352,-1.78569 0.11823,0 0.21455,0.41403 0.21455,0.92002 0,0.79798 -0.61898,1.42353 -4.667599,4.71712 -6.296944,5.12261 -5.762466,4.78541 -6.222571,3.92568 z m 26.643296,-3.03369 c -0.47639,-0.999 -0.48598,-1.18091 -0.0748,-1.41608 0.2595,-0.14844 1.89961,-1.28694 3.64465,-2.53006 1.74508,-1.24317 3.23535,-2.19778 3.31169,-2.12145 0.19263,0.19264 -0.24817,3.82324 -0.51273,4.22317 -0.35392,0.53509 -4.68584,2.99062 -5.27603,2.99062 -0.31162,0 -0.78079,-0.49187 -1.09283,-1.1462 z m 8.70051,0.66193 c 0.15109,-0.3494 0.50324,-1.30269 0.78268,-2.11873 0.42252,-1.23402 0.87133,-1.74326 2.66672,-3.02582 1.18726,-0.84814 2.15869,-1.59067 2.15869,-1.65005 0,-0.0593 -0.93543,0.41519 -2.07876,1.05457 l -2.07872,1.16248 v -2.27272 -2.27276 l 3.43637,-2.21762 c 1.88997,-1.2197 3.5404,-2.11358 3.66758,-1.9864 0.12729,0.12729 0.32786,1.82553 0.44639,3.77417 l 0.2153,3.54293 -3.00331,2.06063 c -1.65179,1.13335 -3.78724,2.62846 -4.74541,3.32248 -1.29888,0.9408 -1.67222,1.10027 -1.46742,0.62684 z m -36.889071,-1.58013 c -0.196416,-0.77928 -0.356948,-1.66002 -0.356948,-1.95725 0,-0.48156 2.1415,-2.64138 5.009437,-5.05231 l 1.01192,-0.85063 0.553742,1.6843 c 0.304445,0.92637 0.611911,1.84273 0.682999,2.03635 0.104252,0.28367 -4.763578,4.48742 -6.181777,5.33866 -0.233055,0.13975 -0.490511,-0.28934 -0.719562,-1.19912 z m 27.356701,-2.40111 c -0.23797,-1.18911 0.22323,-3.7401 1.10027,-6.08776 1.05672,-2.82877 2.26755,-3.83578 3.8326,-3.18749 1.18503,0.49085 2.16519,2.07766 2.38751,3.86524 l 0.17413,1.40071 -3.05982,2.07872 c -1.6829,1.14329 -3.32554,2.26358 -3.65031,2.48949 -0.52806,0.36715 -0.61101,0.30823 -0.78446,-0.55891 z m -28.185199,-2.11314 c -0.10614,-0.51521 -0.492022,-2.08805 -0.857658,-3.49522 -0.365635,-1.40713 -0.721564,-2.84625 -0.790914,-3.19803 -0.09632,-0.48869 0.490285,-1.11462 2.485984,-2.65263 1.436594,-1.10718 2.715111,-1.8987 2.841157,-1.75894 0.126159,0.13975 0.703018,1.59655 1.282218,3.23735 l 1.053092,2.98325 -2.910507,2.91051 -2.910506,2.91051 z m 19.340249,-1.55482 c 0,-0.26856 0.57565,-0.78192 1.2792,-1.14087 0.70358,-0.35884 1.27923,-0.60183 1.27923,-0.53973 0,0.0619 -0.57565,0.5755 -1.27923,1.14088 -0.91137,0.73244 -1.2792,0.88761 -1.2792,0.53972 z m -7.846629,-3.24694 c -0.125404,-1.50659 -0.102363,-2.84573 0.05137,-2.97585 0.153733,-0.12994 1.269409,-1.08837 2.479109,-2.12946 l 2.19944,-1.89284 -0.1847,1.2741 c -0.10161,0.70075 -0.27536,2.24598 -0.38615,3.43376 l -0.20133,2.15967 -1.86485,1.43497 -1.86482,1.43493 z m 26.890779,-0.0612 c -0.27158,-1.23637 -2.502,-4.59863 -3.81595,-5.75227 -0.93392,-0.82004 -1.00225,-0.97978 -0.55166,-1.29038 0.28291,-0.1949 -0.40462,0.0302 -1.52763,0.50098 -1.44905,0.60711 -2.66219,1.46156 -4.17875,2.94321 -2.42313,2.36738 -5.22983,4.47243 -4.93347,3.70022 0.10576,-0.27574 0.0227,-0.70502 -0.18358,-0.95409 -0.30671,-0.36942 0.0687,-0.78748 2.04296,-2.27333 2.73596,-2.05923 3.30825,-2.75946 0.73977,-0.9051 -0.92342,0.66668 -2.11072,1.52343 -2.6384,1.90395 -0.52768,0.38048 -1.67898,0.77936 -2.55843,0.88644 -1.4928,0.18169 -1.55652,0.16129 -0.95942,-0.30482 1.79366,-1.40079 9.07438,-6.62957 12.28703,-8.82414 3.23981,-2.21312 3.70996,-2.44273 4.16262,-2.03306 0.28065,0.25421 1.68491,0.91035 3.12056,1.45858 2.02331,0.77263 2.90843,1.32029 3.93663,2.43575 1.25147,1.35769 2.53475,3.63264 2.55027,4.52104 0.008,0.37659 -2.37829,2.03423 -5.80099,4.03223 l -1.49065,0.87016 z m -8.76959,-6.38771 c 0.39781,-0.50725 0.38648,-0.51854 -0.12088,-0.12087 -0.30784,0.24136 -0.55963,0.49326 -0.55963,0.55967 0,0.26327 0.26252,0.0937 0.68039,-0.43892 z m -10.9142,3.53805 c 0,-0.26365 0.29803,-1.94093 0.66189,-3.72729 0.8705,-4.27163 1.90508,-6.1981 3.89149,-7.24624 1.76007,-0.92875 1.9688,-1.27674 1.32078,-2.20194 -0.89229,-1.27391 -3.42002,-0.61535 -5.13495,1.33786 -0.55537,0.63254 -1.48128,2.39133 -2.05754,3.90841 -1.02155,2.68932 -1.10423,2.79821 -3.30262,4.34956 l -2.254852,1.5912 -0.101985,-1.36725 c -0.203215,-2.72553 0.09519,-3.31992 2.433667,-4.85185 1.18001,-0.77297 2.72112,-2.02052 3.4247,-2.7723 1.49983,-1.60264 1.22435,-1.48056 -2.35125,1.04165 -1.46907,1.03632 -2.72855,1.82667 -2.79885,1.75637 -0.42936,-0.42936 2.171,-6.62805 3.00415,-7.16129 0.30066,-0.19263 3.03602,-1.95758 6.0782,-3.92231 3.04222,-1.96472 5.72424,-3.64627 5.96013,-3.73677 0.29236,-0.11219 0.71552,0.56613 1.33038,2.13326 l 0.90151,2.29784 -0.95485,0.84059 c -0.52518,0.46229 -1.6701,1.46311 -2.54426,2.22399 -1.86701,1.62504 -1.48853,1.47682 1.7277,-0.67661 l 2.35771,-1.57862 0.75224,0.9156 c 0.9355,1.13865 1.95656,2.65392 3.26756,4.84913 l 1.01219,1.69488 -1.93477,1.18337 c -1.06413,0.65085 -4.80438,3.07671 -8.31161,5.39075 -4.00836,2.64466 -6.37687,4.02932 -6.37687,3.72801 z m -21.371715,-2.08862 c -0.188483,-0.74188 -0.313887,-1.36785 -0.278759,-1.39104 0.034,-0.0227 1.190658,-0.79567 2.568138,-1.7166 1.377481,-0.92092 2.54642,-1.62613 2.597715,-1.56717 0.05137,0.0589 0.327486,0.56832 0.614177,1.13185 l 0.520918,1.02457 -2.540111,1.9336 c -1.397084,1.06352 -2.675035,1.93364 -2.839911,1.93364 -0.164687,0 -0.453872,-0.60696 -0.642167,-1.34885 z m 9.413764,-1.85567 c -0.282915,-0.70714 -0.507018,-1.46266 -0.497915,-1.67898 0.01511,-0.36979 2.530933,-2.59088 2.718888,-2.40055 0.289336,0.29312 -0.517782,2.91603 -1.016301,3.30262 -0.583696,0.45267 -0.58328,0.45935 0.01511,0.24892 0.49323,-0.17337 0.572477,-0.105 0.399782,0.34524 -0.118605,0.3086 -0.215302,0.76546 -0.215302,1.01494 0,0.94193 -0.910426,0.40247 -1.404412,-0.83216 z m -10.234291,-2.73804 c -0.106896,-0.27838 -0.19415,-0.69207 -0.19415,-0.91965 0,-0.47272 16.253912,-10.25023 16.549062,-9.95507 0.0525,0.0525 -0.25005,0.70441 -0.67246,1.4483 -0.633251,1.11481 -1.379254,1.70164 -4.244925,3.33903 -1.912147,1.09257 -5.16793,3.023 -7.235019,4.28988 -2.067127,1.26684 -3.814662,2.30339 -3.883408,2.30339 -0.06874,0 -0.21228,-0.22777 -0.319176,-0.50588 z m 8.67048,-0.81868 c -0.313133,-0.55038 -0.529152,-1.02635 -0.479708,-1.05766 5.311087,-3.36347 5.450807,-3.43298 5.243512,-2.60708 -0.455382,1.81443 -0.883531,2.45958 -2.342713,3.53001 -0.842398,0.61799 -1.603585,1.12629 -1.691519,1.12954 -0.08801,0.003 -0.416251,-0.44443 -0.729572,-0.99481 z m -8.724419,-3.36782 c 0.130692,-1.18416 0.411302,-2.03853 0.769119,-2.34335 0.309733,-0.26403 2.282656,-1.40067 4.384193,-2.52629 10.850659,-5.81176 20.413589,-11.20141 19.904149,-11.21796 -0.79174,-0.0264 -12.709885,5.57221 -14.386333,6.7572 l -0.861549,0.60901 1.070769,-1.8479 c 1.440976,-2.48685 3.04509,-4.31715 3.597736,-4.10505 0.245142,0.094 0.361859,0.034 0.258741,-0.13145 -0.102741,-0.1662 0.24212,-0.52455 0.767006,-0.79586 1.23311,-0.63768 2.03135,-0.62162 0.98574,0.0189 -0.92062,0.56477 -0.54985,0.45769 2.55847,-0.73886 1.7512,-0.67412 2.40628,-0.7695 4.15745,-0.60534 2.66581,0.25005 3.56245,0.50025 3.3019,0.92179 -0.12692,0.20511 -0.0151,0.26328 0.28556,0.14807 0.27196,-0.10425 1.04002,0.18131 1.70715,0.63465 l 1.21302,0.82423 -3.65348,1.85296 c -2.51179,1.27391 -4.04002,1.85813 -4.89038,1.8695 -1.01,0.0151 -1.4769,0.25647 -2.54514,1.32471 -0.71952,0.71953 -3.04116,2.25203 -5.159203,3.40555 -4.849737,2.64127 -10.829923,6.02302 -12.438645,7.03392 l -1.232132,0.77426 z m 0.417195,-3.34262 c 0.09783,-0.37432 0.82083,-1.12996 1.606607,-1.67943 2.237178,-1.56438 2.562133,-1.87283 1.353872,-1.28494 -1.029106,0.50071 -1.083725,0.50169 -0.67771,0.0113 0.428036,-0.51604 2.54234,-1.22488 4.835194,-1.62107 0.908462,-0.15713 0.396345,0.27687 -2.718359,2.30298 -2.110716,1.37298 -4.004128,2.59854 -4.207607,2.72346 -0.252319,0.15486 -0.313511,0.0113 -0.191884,-0.45327 z m 20.616646,-4.34404 c 0.46853,-0.49111 0.99375,-1.25268 1.16721,-1.69242 0.22852,-0.57913 1.33517,-1.32661 4.01553,-2.71183 l 3.70017,-1.91233 0.68693,0.68688 0.68689,0.68693 -2.52338,1.26987 c -1.3879,0.69841 -3.88733,2.01141 -5.5543,2.9178 -2.5854,1.40577 -2.90571,1.51674 -2.17905,0.7551 z"
           id="path1" /><path
           style="font-size:16.5873px;font-family:Rebeca;-inkscape-font-specification:Rebeca;stroke-width:1.38227"
           d="m 95.200624,171.33935 q 0.281984,0 0.547381,0.16587 0.265397,0.14928 0.398095,0.41468 0.06635,0.11611 -0.04976,0.18246 -0.09952,0.0498 -0.165873,-0.0663 -0.01659,-0.0332 -0.06635,-0.0995 -0.04976,-0.0663 -0.215635,-0.16588 -0.149285,-0.11611 -0.331746,-0.11611 -0.464444,0.0166 -0.713254,0.59715 -0.248809,0.58055 -0.03317,1.16111 0.149286,0.43127 0.829365,1.32698 0.165873,0.21564 0.265397,0.36492 1.045,-0.9123 2.355396,-1.45968 0.116111,-0.0498 0.165873,0.0663 0.04976,0.11611 -0.06635,0.16587 -1.293809,0.5308 -2.322222,1.4431 0.265397,0.43127 0.315159,0.82936 0.149285,1.09476 -0.563968,2.13976 -0.315159,0.46445 -0.68008,0.6635 -0.43127,0.23222 -0.79619,0.0498 -0.232222,-0.1327 -0.315159,-0.38151 -0.08294,-0.24881 -0.04976,-0.58056 0.09952,-0.6469 0.630318,-1.44309 0.315158,-0.49762 0.763015,-0.97865 -0.06635,-0.11611 -0.646904,-0.87913 -0.580556,-0.76301 -0.696667,-1.26063 -0.18246,-0.77961 0.232222,-1.39334 0.414683,-0.63031 1.045,-0.72984 0.06635,-0.0166 0.165873,-0.0166 z m 0.03317,4.51174 q -0.398095,0.43127 -0.696667,0.87913 -0.497619,0.74643 -0.580555,1.34357 -0.03317,0.28198 0.03317,0.46444 0.06635,0.19905 0.265397,0.21564 0.199048,0.0332 0.331746,-0.0829 0.43127,-0.29857 0.696667,-1.12794 0.281984,-0.81277 0.08294,-1.36015 -0.04976,-0.16588 -0.132698,-0.33175 z m 6.950061,-11.14666 q 0.72984,0.0166 0.97865,0.72984 0.0995,0.3815 0.0166,0.94547 -0.11611,0.74643 -0.53079,1.72508 0.68008,0.0829 1.14452,0.0829 0.68008,0.0332 1.045,-0.0663 0.36492,-0.11611 0.41468,-0.34833 0.0166,-0.11612 0.1327,-0.0829 0.1327,0.0166 0.0995,0.1327 -0.24881,0.92889 -2.98572,0.63031 -0.11611,0.24881 -0.23222,0.48104 -0.69667,1.4265 -1.65873,2.70373 -0.945476,1.27722 -1.808016,1.87436 -0.04976,0.74643 -0.03317,1.34357 0.04976,1.09476 0.331746,1.72508 0.298571,0.66349 0.829365,0.72984 0.447859,0.0498 0.928889,-0.33174 0.43127,-0.34834 0.87913,-1.01183 0.58055,-0.87913 1.19428,-2.32222 0.0498,-0.11611 0.16587,-0.0663 0.11612,0.0498 0.0663,0.16587 -0.63031,1.47627 -1.22746,2.3554 -0.46444,0.71325 -0.92889,1.07817 -0.92888,0.68008 -1.774836,0.2654 -0.680079,-0.31516 -0.978651,-1.36016 -0.298571,-1.06158 -0.248809,-2.43833 0.06635,-1.37675 0.398095,-2.90278 0.331746,-1.44309 0.845952,-2.72031 -1.144523,-0.19905 -2.056825,-0.14929 -0.912301,0.0332 -0.912301,0.48103 0,0.11611 -0.116111,0.11611 -0.132699,-0.0166 -0.116112,-0.1327 0.01659,-0.43127 0.481032,-0.63031 0.364921,-0.16588 1.061587,-0.18246 0.68008,0 1.808016,0.13269 0.514206,-1.17769 1.127933,-1.94071 0.61373,-0.7796 1.24405,-0.96206 0.21564,-0.0498 0.41468,-0.0498 z m 0.11611,0.33174 q -0.0166,0 -0.0332,0 -0.24881,0.0166 -0.53079,0.23222 -0.44786,0.33175 -0.89572,1.09477 -0.34833,0.59714 -0.66349,1.39333 0.24881,0.0332 0.49762,0.0829 1.26063,0.18247 1.72508,0.23223 0.41468,-0.99524 0.53079,-1.72508 0.0829,-0.51421 0,-0.84595 -0.0995,-0.31516 -0.34833,-0.41469 -0.1327,-0.0498 -0.28199,-0.0498 z m -2.27246,3.08524 q -0.381504,1.01182 -0.663488,2.15635 -0.398095,1.45968 -0.530793,2.90278 0.779603,-0.59715 1.675321,-1.80802 0.89571,-1.22746 1.54261,-2.53786 0.0995,-0.19904 0.18247,-0.39809 -0.33175,-0.0498 -0.91231,-0.11611 -0.56396,-0.0829 -0.68008,-0.0995 -0.21563,-0.0332 -0.61373,-0.0995 z m 4.62784,3.18476 q 0.5142,-0.0166 0.87912,0.59714 0.43127,0.72984 0.41468,2.02365 0,0.23223 -0.0166,0.49762 0.68008,0.14929 1.29381,-0.11611 0.61373,-0.2654 0.89571,-0.68008 0.0829,-0.0995 0.18246,-0.0332 0.0995,0.0663 0.0332,0.16587 -0.41469,0.54738 -1.07818,0.79619 -0.66349,0.24881 -1.36016,0.14929 -0.0995,0.74643 -0.33174,1.26063 -0.19905,0.44786 -0.49762,0.66349 -0.36492,0.28199 -0.87913,0.24881 -0.63032,-0.0498 -1.06159,-0.58055 -0.41468,-0.54738 -0.43127,-1.36016 -0.0166,-1.07818 0.48104,-1.77484 0.16587,-0.19905 0.3815,-0.19905 0.16588,0 0.23223,0.1327 0.0829,0.1327 -0.0166,0.34833 -0.3981,0.74643 -0.28199,1.75826 0.0498,0.58055 0.28199,0.94547 0.24881,0.38151 0.59714,0.43127 0.31516,0.0332 0.54738,-0.14928 0.24881,-0.18246 0.41468,-0.56397 0.21564,-0.48103 0.31516,-1.19429 -0.61373,-0.14928 -1.09476,-0.54738 -0.46444,-0.41468 -0.68008,-1.06159 -0.16587,-0.46444 -0.0498,-0.96206 0.11611,-0.51421 0.46444,-0.69667 0.18247,-0.0995 0.36493,-0.0995 z m 0.0663,0.28198 q -0.0829,0 -0.16587,0.0498 -0.21563,0.0829 -0.29857,0.44785 -0.0829,0.38151 0.0332,0.84596 0.29858,1.07817 1.39334,1.4265 0.0166,-0.23222 0.0166,-0.43127 0.0166,-1.22746 -0.38151,-1.89095 -0.16588,-0.28198 -0.38151,-0.39809 -0.0995,-0.0332 -0.18246,-0.0498 -0.0166,0 -0.0332,0 z m 4.36244,-0.44785 q 0,0 0.0166,0 0.28199,0.0166 0.43127,0.21563 0.14929,0.18246 0.0995,0.43127 -0.0498,0.24881 -0.23222,0.51421 -0.41469,0.56397 -0.97865,0.61373 0,0.1327 0.0166,0.23222 0.0332,0.33175 0.2654,0.43127 0.23222,0.0995 0.87913,-0.1327 0.33174,-0.1327 0.48103,-0.14928 0.29857,-0.0332 0.43127,0.13269 0.11611,0.1327 0.0995,0.33175 -0.0166,0.14929 -0.11611,0.43127 -0.53079,1.45968 -0.56397,1.59238 -0.43127,1.39333 -0.49762,2.15635 -0.0332,0.48103 0.0663,0.74643 0.0995,0.2654 0.36492,0.31516 0.16588,0.0332 0.33175,-0.0995 0.18246,-0.13269 0.39809,-0.43127 0.2654,-0.3815 0.82937,-1.50944 0.76301,-1.52603 1.50944,-3.31746 0.0498,-0.11611 0.16588,-0.0663 0.11611,0.0498 0.0663,0.16587 -0.74643,1.79143 -1.50945,3.33405 -0.58055,1.14452 -0.86254,1.54262 -0.23222,0.33175 -0.44786,0.48103 -0.3815,0.29857 -0.84595,0.16587 -0.44785,-0.13269 -0.63032,-0.6469 -0.31515,-0.89571 0.11612,-2.55444 0.0829,-0.31516 0.19904,-0.64691 0.11611,-0.33175 0.2654,-0.72984 0.16587,-0.41468 0.23222,-0.58056 0.14929,-0.44785 0.0663,-0.44785 -0.0166,0 -0.0663,0.0166 -0.0166,0 -0.0663,0.0166 -0.82936,0.31516 -1.27722,0.0829 -0.36492,-0.21564 -0.48103,-0.66349 -0.1327,-0.46445 0.0166,-0.89572 0.1327,-0.38151 0.39809,-0.66349 0.2654,-0.29857 0.61373,-0.38151 0.0995,-0.0332 0.21564,-0.0332 z m 0.18246,0.36492 q -0.0166,0 -0.0498,0.0166 -0.11612,0.0332 -0.24881,0.14928 -0.29858,0.28199 -0.44786,0.74643 -0.0332,0.11611 -0.0663,0.24881 0.41468,-0.0663 0.72984,-0.51421 0.16587,-0.21563 0.19905,-0.41468 0.0332,-0.14929 -0.0332,-0.19905 -0.0332,-0.0332 -0.0663,-0.0332 z m 5.10888,-1.84119 q 0.0663,0 0.1327,0.0166 0.24881,0.0663 0.29857,0.36492 0.0498,0.21563 -0.0332,0.46444 -0.0663,0.2654 -0.23222,0.41468 -0.19905,0.21564 -0.46444,0.14929 -0.24881,-0.0829 -0.31516,-0.38151 -0.0498,-0.21563 0.0332,-0.46444 0.0829,-0.2654 0.24881,-0.41469 0.14929,-0.14928 0.33175,-0.14928 z m -0.51421,1.89095 q 0.16588,0 0.24881,0.1327 0.0829,0.1327 0.0166,0.31516 -0.44786,1.54262 -0.48103,2.65396 -0.0166,0.68008 0.11611,1.07818 0.14928,0.43127 0.48103,0.56397 0.43127,0.16587 0.9123,-0.18246 0.43127,-0.28199 0.86254,-0.92889 0.51421,-0.72984 0.84595,-1.54262 0.0498,-0.11611 0.16588,-0.0663 0.11611,0.0498 0.0663,0.16587 -0.34834,0.82937 -0.86254,1.59238 -0.48104,0.6635 -0.92889,0.99524 -0.84595,0.58056 -1.69191,0.1327 -0.49762,-0.28198 -0.68008,-0.92889 -0.16587,-0.66349 -0.0829,-1.45968 0.11611,-1.07818 0.56397,-2.15635 0.14928,-0.36492 0.44785,-0.36492 z m 5.00935,-0.2654 q 0.53079,0 0.69667,0.43127 0.0663,0.18246 0.0498,0.41469 -0.0332,0.44785 -0.31516,0.97865 -0.29857,0.53079 -0.76302,0.9123 -0.44785,0.38151 -0.96206,0.39809 -0.0166,0 -0.0332,-0.0166 -0.0498,0.53079 0.0166,0.94547 0.1327,0.64691 0.56397,0.82937 0.43127,0.18246 1.02841,-0.1327 0.49762,-0.28199 1.06159,-0.89572 0.29857,-0.31515 0.58056,-0.69666 0.28198,-0.38151 0.43127,-0.59715 l 0.13269,-0.23222 q 0.0663,-0.0995 0.16588,-0.0332 0.11611,0.0663 0.0498,0.16587 -0.49762,0.81278 -1.1777,1.55921 -0.59714,0.6469 -1.12794,0.94547 -0.92888,0.51421 -1.67531,0.0995 -0.56397,-0.33175 -0.74643,-1.14453 -0.18246,-0.82936 0.0166,-1.57579 0.16587,-0.82937 0.66349,-1.52603 0.49762,-0.69667 1.19428,-0.81278 0.0829,0 0.14929,-0.0166 z m 0.18246,0.33175 q 0,0 -0.0166,0 -0.0829,0 -0.19905,0.0663 -0.21563,0.11611 -0.44785,0.41468 -0.49762,0.64691 -0.72984,1.59238 -0.0498,0.24881 -0.0829,0.48103 0.41468,-0.0166 0.81278,-0.34833 0.41468,-0.34833 0.69666,-0.84595 0.2654,-0.46445 0.28199,-0.86254 0.0166,-0.18246 -0.0332,-0.29857 -0.0332,-0.11611 -0.13269,-0.16588 -0.0663,-0.0332 -0.14929,-0.0332 z m 3.73214,-0.28198 q 0.28199,0 0.54738,0.16587 0.2654,0.14928 0.3981,0.41468 0.0663,0.11611 -0.0498,0.18246 -0.0995,0.0498 -0.16588,-0.0663 -0.0166,-0.0332 -0.0663,-0.0995 -0.0498,-0.0663 -0.21563,-0.16588 -0.14929,-0.11611 -0.33175,-0.11611 -0.46444,0.0166 -0.71325,0.59715 -0.24881,0.58055 -0.0332,1.16111 0.14929,0.43127 0.82937,1.32698 0.16587,0.21564 0.2654,0.36492 1.045,-0.9123 2.35539,-1.45968 0.11611,-0.0498 0.16588,0.0663 0.0498,0.11611 -0.0663,0.16587 -1.29381,0.5308 -2.32223,1.4431 0.2654,0.43127 0.31516,0.82936 0.14929,1.09476 -0.56397,2.13976 -0.31515,0.46445 -0.68007,0.6635 -0.43127,0.23222 -0.79619,0.0498 -0.23223,-0.1327 -0.31516,-0.38151 -0.0829,-0.24881 -0.0498,-0.58056 0.0995,-0.6469 0.63032,-1.44309 0.31516,-0.49762 0.76302,-0.97865 -0.0663,-0.11611 -0.64691,-0.87913 -0.58055,-0.76301 -0.69666,-1.26063 -0.18246,-0.77961 0.23222,-1.39334 0.41468,-0.63031 1.045,-0.72984 0.0663,-0.0166 0.16587,-0.0166 z m 0.0332,4.51174 q -0.3981,0.43127 -0.69667,0.87913 -0.49762,0.74643 -0.58056,1.34357 -0.0332,0.28198 0.0332,0.46444 0.0663,0.19905 0.2654,0.21564 0.19904,0.0332 0.33174,-0.0829 0.43127,-0.29857 0.69667,-1.12794 0.28198,-0.81277 0.0829,-1.36015 -0.0498,-0.16588 -0.13269,-0.33175 z"
           id="text1"
           aria-label="stories" /></g></g></g></svg>
